# xmcd CD database file
#
# Track frame offsets:
#	150
#	22619
#	48533
#
# Disc length: 1091 seconds
#
# Revision: 0
# Processed by: cddbd v1.5.1PL0 Copyright (c) Steve Scherf et al.
# Submitted via: CDex 1.51
#
DISCID=17044103
DTITLE=鈴木祥子 - LOVE - IDENTIFIED
DYEAR=2005
DGENRE=Rock
TTITLE0=LOVE - IDENTIFIED
TTITLE1=何がしたいの？
TTITLE2=愛することは罪じゃない
EXTD=YEAR: 2005
EXTT0=
EXTT1=
EXTT2=
PLAYORDER=
